# xmcd CD database file
#
# Track frame offsets:
#	150
#	14012
#	27557
#	43942
#	57580
#	70350
#	82952
#	98547
#	113887
#	129907
#	151642
#	165827
#	179700
#
# Disc length: 3130 seconds
#
# Revision: 0
# Processed by: cddbd v1.5.2PL0 Copyright (c) Steve Scherf et al.
# Submitted via: CDex 1.70beta2
#
DISCID=a60c380d
DTITLE=Charlie Parker - The Original Recordings of Charlie Parker
DYEAR=1953
DGENRE=Jazz
TTITLE0=Now's Tthe Time
TTITLE1=Laura
TTITLE2=Mohawk
TTITLE3=Kim
TTITLE4=Blues for Alice
TTITLE5=Laird Baird
TTITLE6=K.C. Blues
TTITLE7=Lover Man
TTITLE8=Just Friends
TTITLE9=The Bird
TTITLE10=April in Paris
TTITLE11=I`ll Remember April
TTITLE12=Lester Leaps in
EXTD=YEAR: 1953
EXTT0=
EXTT1=
EXTT2=
EXTT3=
EXTT4=
EXTT5=
EXTT6=
EXTT7=
EXTT8=
EXTT9=
EXTT10=
EXTT11=
EXTT12=
PLAYORDER=
